<mxfile host="app.diagrams.net" agent="Mozilla/5.0 (Windows NT 10.0; Win64; x64) AppleWebKit/537.36 (KHTML, like Gecko) Chrome/133.0.0.0 Safari/537.36" version="26.0.14">
  <diagram name="Page-1" id="LuLJbXCC-MuU4jHSFNh8">
    <mxGraphModel dx="978" dy="482" grid="1" gridSize="10" guides="1" tooltips="1" connect="1" arrows="1" fold="1" page="1" pageScale="1" pageWidth="850" pageHeight="1100" math="0" shadow="0">
      <root>
        <mxCell id="0" />
        <mxCell id="1" parent="0" />
        <mxCell id="5NJ1pugXPzePn0BYfRPo-1" value="" style="shape=or;whiteSpace=wrap;html=1;" parent="1" vertex="1">
          <mxGeometry x="420" y="118" width="50" height="50" as="geometry" />
        </mxCell>
        <mxCell id="5NJ1pugXPzePn0BYfRPo-7" value="" style="shape=xor;whiteSpace=wrap;html=1;" parent="1" vertex="1">
          <mxGeometry x="600" y="130" width="50" height="50" as="geometry" />
        </mxCell>
        <mxCell id="5NJ1pugXPzePn0BYfRPo-8" value="" style="shape=xor;whiteSpace=wrap;html=1;" parent="1" vertex="1">
          <mxGeometry x="750" y="148" width="40" height="50" as="geometry" />
        </mxCell>
        <mxCell id="5NJ1pugXPzePn0BYfRPo-31" value="n1" style="text;html=1;align=center;verticalAlign=middle;resizable=0;points=[];autosize=1;strokeColor=none;fillColor=none;" parent="1" vertex="1">
          <mxGeometry x="30" y="80" width="40" height="30" as="geometry" />
        </mxCell>
        <mxCell id="5NJ1pugXPzePn0BYfRPo-32" value="n2" style="text;html=1;align=center;verticalAlign=middle;resizable=0;points=[];autosize=1;strokeColor=none;fillColor=none;" parent="1" vertex="1">
          <mxGeometry x="40" y="168" width="40" height="30" as="geometry" />
        </mxCell>
        <mxCell id="5NJ1pugXPzePn0BYfRPo-33" value="n3" style="text;html=1;align=center;verticalAlign=middle;resizable=0;points=[];autosize=1;strokeColor=none;fillColor=none;" parent="1" vertex="1">
          <mxGeometry x="40" y="270" width="40" height="30" as="geometry" />
        </mxCell>
        <mxCell id="5NJ1pugXPzePn0BYfRPo-34" value="n4" style="text;html=1;align=center;verticalAlign=middle;resizable=0;points=[];autosize=1;strokeColor=none;fillColor=none;" parent="1" vertex="1">
          <mxGeometry x="40" y="370" width="40" height="30" as="geometry" />
        </mxCell>
        <mxCell id="5NJ1pugXPzePn0BYfRPo-77" value="" style="triangle;whiteSpace=wrap;html=1;" parent="1" vertex="1">
          <mxGeometry x="116.56" y="115" width="30" height="40" as="geometry" />
        </mxCell>
        <mxCell id="5NJ1pugXPzePn0BYfRPo-78" value="" style="ellipse;whiteSpace=wrap;html=1;aspect=fixed;" parent="1" vertex="1">
          <mxGeometry x="146.56" y="130" width="10" height="10" as="geometry" />
        </mxCell>
        <mxCell id="5NJ1pugXPzePn0BYfRPo-79" value="" style="triangle;whiteSpace=wrap;html=1;" parent="1" vertex="1">
          <mxGeometry x="116.56" y="305" width="30" height="40" as="geometry" />
        </mxCell>
        <mxCell id="5NJ1pugXPzePn0BYfRPo-80" value="" style="ellipse;whiteSpace=wrap;html=1;aspect=fixed;" parent="1" vertex="1">
          <mxGeometry x="146.56" y="320" width="10" height="10" as="geometry" />
        </mxCell>
        <mxCell id="knz-vopeXLWIy0nvYE_B-19" value="" style="shape=or;whiteSpace=wrap;html=1;" vertex="1" parent="1">
          <mxGeometry x="510" y="240" width="50" height="50" as="geometry" />
        </mxCell>
        <mxCell id="knz-vopeXLWIy0nvYE_B-223" style="edgeStyle=orthogonalEdgeStyle;rounded=0;orthogonalLoop=1;jettySize=auto;html=1;exitX=0;exitY=0.25;exitDx=0;exitDy=0;exitPerimeter=0;entryX=0;entryY=0.25;entryDx=0;entryDy=0;entryPerimeter=0;" edge="1" parent="1" target="knz-vopeXLWIy0nvYE_B-21">
          <mxGeometry relative="1" as="geometry">
            <mxPoint x="230" y="130" as="sourcePoint" />
          </mxGeometry>
        </mxCell>
        <mxCell id="knz-vopeXLWIy0nvYE_B-21" value="" style="shape=or;whiteSpace=wrap;html=1;" vertex="1" parent="1">
          <mxGeometry x="400" y="205" width="50" height="50" as="geometry" />
        </mxCell>
        <mxCell id="knz-vopeXLWIy0nvYE_B-228" style="edgeStyle=orthogonalEdgeStyle;rounded=0;orthogonalLoop=1;jettySize=auto;html=1;exitX=0;exitY=0.75;exitDx=0;exitDy=0;exitPerimeter=0;entryX=0;entryY=0.75;entryDx=0;entryDy=0;entryPerimeter=0;" edge="1" parent="1" target="knz-vopeXLWIy0nvYE_B-31">
          <mxGeometry relative="1" as="geometry">
            <mxPoint x="90" y="400" as="sourcePoint" />
            <Array as="points">
              <mxPoint x="290" y="401" />
              <mxPoint x="290" y="327" />
            </Array>
          </mxGeometry>
        </mxCell>
        <mxCell id="knz-vopeXLWIy0nvYE_B-31" value="" style="shape=or;whiteSpace=wrap;html=1;" vertex="1" parent="1">
          <mxGeometry x="590" y="290" width="50" height="50" as="geometry" />
        </mxCell>
        <mxCell id="knz-vopeXLWIy0nvYE_B-34" value="" style="ellipse;whiteSpace=wrap;html=1;aspect=fixed;" vertex="1" parent="1">
          <mxGeometry x="146.56" y="220" width="10" height="10" as="geometry" />
        </mxCell>
        <mxCell id="knz-vopeXLWIy0nvYE_B-35" value="" style="triangle;whiteSpace=wrap;html=1;" vertex="1" parent="1">
          <mxGeometry x="116.56" y="205" width="30" height="40" as="geometry" />
        </mxCell>
        <mxCell id="knz-vopeXLWIy0nvYE_B-157" style="edgeStyle=orthogonalEdgeStyle;rounded=0;orthogonalLoop=1;jettySize=auto;html=1;entryX=0;entryY=0.5;entryDx=0;entryDy=0;" edge="1" parent="1" target="knz-vopeXLWIy0nvYE_B-47">
          <mxGeometry relative="1" as="geometry">
            <mxPoint x="90" y="390" as="sourcePoint" />
            <Array as="points">
              <mxPoint x="90" y="401" />
              <mxPoint x="97" y="401" />
              <mxPoint x="97" y="440" />
            </Array>
          </mxGeometry>
        </mxCell>
        <mxCell id="knz-vopeXLWIy0nvYE_B-47" value="" style="triangle;whiteSpace=wrap;html=1;" vertex="1" parent="1">
          <mxGeometry x="116.56" y="420" width="30" height="40" as="geometry" />
        </mxCell>
        <mxCell id="knz-vopeXLWIy0nvYE_B-48" value="" style="ellipse;whiteSpace=wrap;html=1;aspect=fixed;" vertex="1" parent="1">
          <mxGeometry x="146.56" y="435" width="10" height="10" as="geometry" />
        </mxCell>
        <mxCell id="knz-vopeXLWIy0nvYE_B-49" value="Ccircuit diagram of G" style="text;html=1;align=center;verticalAlign=middle;resizable=0;points=[];autosize=1;strokeColor=none;fillColor=none;" vertex="1" parent="1">
          <mxGeometry x="255" y="10" width="140" height="30" as="geometry" />
        </mxCell>
        <mxCell id="knz-vopeXLWIy0nvYE_B-80" style="edgeStyle=orthogonalEdgeStyle;rounded=0;orthogonalLoop=1;jettySize=auto;html=1;entryX=0;entryY=0.75;entryDx=0;entryDy=0;" edge="1" parent="1" target="5NJ1pugXPzePn0BYfRPo-79">
          <mxGeometry relative="1" as="geometry">
            <mxPoint x="80" y="290" as="sourcePoint" />
            <Array as="points">
              <mxPoint x="80" y="335" />
            </Array>
          </mxGeometry>
        </mxCell>
        <mxCell id="knz-vopeXLWIy0nvYE_B-81" style="edgeStyle=orthogonalEdgeStyle;rounded=0;orthogonalLoop=1;jettySize=auto;html=1;entryX=0;entryY=0.5;entryDx=0;entryDy=0;" edge="1" parent="1" target="5NJ1pugXPzePn0BYfRPo-77">
          <mxGeometry relative="1" as="geometry">
            <mxPoint x="70" y="80" as="sourcePoint" />
            <Array as="points">
              <mxPoint x="70" y="135" />
            </Array>
          </mxGeometry>
        </mxCell>
        <mxCell id="knz-vopeXLWIy0nvYE_B-95" style="edgeStyle=orthogonalEdgeStyle;rounded=0;orthogonalLoop=1;jettySize=auto;html=1;exitX=1.094;exitY=0.497;exitDx=0;exitDy=0;entryX=0;entryY=0.5;entryDx=0;entryDy=0;exitPerimeter=0;" edge="1" parent="1" source="5NJ1pugXPzePn0BYfRPo-32" target="knz-vopeXLWIy0nvYE_B-35">
          <mxGeometry relative="1" as="geometry">
            <Array as="points">
              <mxPoint x="80" y="183" />
              <mxPoint x="80" y="218" />
              <mxPoint x="97" y="218" />
              <mxPoint x="97" y="225" />
            </Array>
          </mxGeometry>
        </mxCell>
        <mxCell id="knz-vopeXLWIy0nvYE_B-231" style="edgeStyle=orthogonalEdgeStyle;rounded=0;orthogonalLoop=1;jettySize=auto;html=1;entryX=0;entryY=0.25;entryDx=0;entryDy=0;entryPerimeter=0;" edge="1" parent="1" target="knz-vopeXLWIy0nvYE_B-128">
          <mxGeometry relative="1" as="geometry">
            <mxPoint x="70" y="81" as="sourcePoint" />
            <Array as="points">
              <mxPoint x="70" y="81" />
              <mxPoint x="70" y="53" />
            </Array>
          </mxGeometry>
        </mxCell>
        <mxCell id="knz-vopeXLWIy0nvYE_B-233" style="edgeStyle=orthogonalEdgeStyle;rounded=0;orthogonalLoop=1;jettySize=auto;html=1;exitX=0;exitY=0.75;exitDx=0;exitDy=0;exitPerimeter=0;entryX=0;entryY=0.75;entryDx=0;entryDy=0;entryPerimeter=0;" edge="1" parent="1" target="knz-vopeXLWIy0nvYE_B-128">
          <mxGeometry relative="1" as="geometry">
            <mxPoint x="100" y="180" as="sourcePoint" />
            <Array as="points">
              <mxPoint x="100" y="77" />
            </Array>
          </mxGeometry>
        </mxCell>
        <mxCell id="knz-vopeXLWIy0nvYE_B-128" value="" style="shape=or;whiteSpace=wrap;html=1;" vertex="1" parent="1">
          <mxGeometry x="160" y="40" width="50" height="50" as="geometry" />
        </mxCell>
        <mxCell id="knz-vopeXLWIy0nvYE_B-174" value="" style="shape=or;whiteSpace=wrap;html=1;" vertex="1" parent="1">
          <mxGeometry x="550" y="180" width="50" height="50" as="geometry" />
        </mxCell>
        <mxCell id="knz-vopeXLWIy0nvYE_B-179" value="" style="shape=or;whiteSpace=wrap;html=1;" vertex="1" parent="1">
          <mxGeometry x="300" y="70" width="50" height="50" as="geometry" />
        </mxCell>
        <mxCell id="knz-vopeXLWIy0nvYE_B-238" style="edgeStyle=orthogonalEdgeStyle;rounded=0;orthogonalLoop=1;jettySize=auto;html=1;exitX=0;exitY=0.75;exitDx=0;exitDy=0;exitPerimeter=0;entryX=0;entryY=0.75;entryDx=0;entryDy=0;entryPerimeter=0;" edge="1" parent="1" target="knz-vopeXLWIy0nvYE_B-180">
          <mxGeometry relative="1" as="geometry">
            <mxPoint x="360" y="160" as="sourcePoint" />
            <Array as="points">
              <mxPoint x="360" y="161" />
              <mxPoint x="390" y="161" />
              <mxPoint x="390" y="88" />
            </Array>
          </mxGeometry>
        </mxCell>
        <mxCell id="knz-vopeXLWIy0nvYE_B-180" value="" style="shape=or;whiteSpace=wrap;html=1;" vertex="1" parent="1">
          <mxGeometry x="480" y="50" width="50" height="50" as="geometry" />
        </mxCell>
        <mxCell id="knz-vopeXLWIy0nvYE_B-218" style="edgeStyle=orthogonalEdgeStyle;rounded=0;orthogonalLoop=1;jettySize=auto;html=1;exitX=1;exitY=1;exitDx=0;exitDy=0;entryX=0;entryY=0.25;entryDx=0;entryDy=0;entryPerimeter=0;" edge="1" parent="1" source="5NJ1pugXPzePn0BYfRPo-78" target="knz-vopeXLWIy0nvYE_B-179">
          <mxGeometry relative="1" as="geometry" />
        </mxCell>
        <mxCell id="knz-vopeXLWIy0nvYE_B-219" style="edgeStyle=orthogonalEdgeStyle;rounded=0;orthogonalLoop=1;jettySize=auto;html=1;exitX=1;exitY=0.5;exitDx=0;exitDy=0;entryX=0;entryY=0.75;entryDx=0;entryDy=0;entryPerimeter=0;" edge="1" parent="1" source="knz-vopeXLWIy0nvYE_B-34" target="knz-vopeXLWIy0nvYE_B-179">
          <mxGeometry relative="1" as="geometry">
            <Array as="points">
              <mxPoint x="250" y="225" />
              <mxPoint x="250" y="100" />
              <mxPoint x="290" y="100" />
            </Array>
          </mxGeometry>
        </mxCell>
        <mxCell id="knz-vopeXLWIy0nvYE_B-220" style="edgeStyle=orthogonalEdgeStyle;rounded=0;orthogonalLoop=1;jettySize=auto;html=1;exitX=1;exitY=0.5;exitDx=0;exitDy=0;exitPerimeter=0;entryX=0;entryY=0.25;entryDx=0;entryDy=0;entryPerimeter=0;" edge="1" parent="1" source="knz-vopeXLWIy0nvYE_B-179" target="5NJ1pugXPzePn0BYfRPo-1">
          <mxGeometry relative="1" as="geometry" />
        </mxCell>
        <mxCell id="knz-vopeXLWIy0nvYE_B-221" style="edgeStyle=orthogonalEdgeStyle;rounded=0;orthogonalLoop=1;jettySize=auto;html=1;exitX=1;exitY=0.5;exitDx=0;exitDy=0;entryX=0;entryY=0.75;entryDx=0;entryDy=0;entryPerimeter=0;" edge="1" parent="1" source="5NJ1pugXPzePn0BYfRPo-80" target="5NJ1pugXPzePn0BYfRPo-1">
          <mxGeometry relative="1" as="geometry">
            <Array as="points">
              <mxPoint x="276" y="325" />
              <mxPoint x="276" y="160" />
              <mxPoint x="395" y="160" />
            </Array>
          </mxGeometry>
        </mxCell>
        <mxCell id="knz-vopeXLWIy0nvYE_B-222" style="edgeStyle=orthogonalEdgeStyle;rounded=0;orthogonalLoop=1;jettySize=auto;html=1;exitX=1;exitY=0.5;exitDx=0;exitDy=0;exitPerimeter=0;entryX=0.175;entryY=0.25;entryDx=0;entryDy=0;entryPerimeter=0;" edge="1" parent="1" source="5NJ1pugXPzePn0BYfRPo-1" target="5NJ1pugXPzePn0BYfRPo-7">
          <mxGeometry relative="1" as="geometry" />
        </mxCell>
        <mxCell id="knz-vopeXLWIy0nvYE_B-224" style="edgeStyle=orthogonalEdgeStyle;rounded=0;orthogonalLoop=1;jettySize=auto;html=1;exitX=1.125;exitY=0.465;exitDx=0;exitDy=0;exitPerimeter=0;entryX=0;entryY=0.75;entryDx=0;entryDy=0;entryPerimeter=0;" edge="1" parent="1" source="5NJ1pugXPzePn0BYfRPo-32" target="knz-vopeXLWIy0nvYE_B-21">
          <mxGeometry relative="1" as="geometry">
            <Array as="points">
              <mxPoint x="230" y="182" />
              <mxPoint x="230" y="243" />
            </Array>
          </mxGeometry>
        </mxCell>
        <mxCell id="knz-vopeXLWIy0nvYE_B-225" style="edgeStyle=orthogonalEdgeStyle;rounded=0;orthogonalLoop=1;jettySize=auto;html=1;exitX=1;exitY=0.5;exitDx=0;exitDy=0;exitPerimeter=0;entryX=0;entryY=0.25;entryDx=0;entryDy=0;entryPerimeter=0;" edge="1" parent="1" source="knz-vopeXLWIy0nvYE_B-21" target="knz-vopeXLWIy0nvYE_B-19">
          <mxGeometry relative="1" as="geometry" />
        </mxCell>
        <mxCell id="knz-vopeXLWIy0nvYE_B-226" style="edgeStyle=orthogonalEdgeStyle;rounded=0;orthogonalLoop=1;jettySize=auto;html=1;exitX=0.75;exitY=0.667;exitDx=0;exitDy=0;exitPerimeter=0;entryX=0;entryY=0.75;entryDx=0;entryDy=0;entryPerimeter=0;" edge="1" parent="1" source="5NJ1pugXPzePn0BYfRPo-33" target="knz-vopeXLWIy0nvYE_B-19">
          <mxGeometry relative="1" as="geometry" />
        </mxCell>
        <mxCell id="knz-vopeXLWIy0nvYE_B-227" style="edgeStyle=orthogonalEdgeStyle;rounded=0;orthogonalLoop=1;jettySize=auto;html=1;exitX=1;exitY=0.5;exitDx=0;exitDy=0;exitPerimeter=0;entryX=0;entryY=0.25;entryDx=0;entryDy=0;entryPerimeter=0;" edge="1" parent="1" source="knz-vopeXLWIy0nvYE_B-19" target="knz-vopeXLWIy0nvYE_B-31">
          <mxGeometry relative="1" as="geometry" />
        </mxCell>
        <mxCell id="knz-vopeXLWIy0nvYE_B-229" style="edgeStyle=orthogonalEdgeStyle;rounded=0;orthogonalLoop=1;jettySize=auto;html=1;exitX=1;exitY=0.5;exitDx=0;exitDy=0;exitPerimeter=0;entryX=0.175;entryY=0.75;entryDx=0;entryDy=0;entryPerimeter=0;" edge="1" parent="1" source="knz-vopeXLWIy0nvYE_B-31" target="5NJ1pugXPzePn0BYfRPo-7">
          <mxGeometry relative="1" as="geometry" />
        </mxCell>
        <mxCell id="knz-vopeXLWIy0nvYE_B-230" style="edgeStyle=orthogonalEdgeStyle;rounded=0;orthogonalLoop=1;jettySize=auto;html=1;exitX=1;exitY=0.5;exitDx=0;exitDy=0;exitPerimeter=0;entryX=0.175;entryY=0.25;entryDx=0;entryDy=0;entryPerimeter=0;" edge="1" parent="1" source="5NJ1pugXPzePn0BYfRPo-7" target="5NJ1pugXPzePn0BYfRPo-8">
          <mxGeometry relative="1" as="geometry" />
        </mxCell>
        <mxCell id="knz-vopeXLWIy0nvYE_B-234" style="edgeStyle=orthogonalEdgeStyle;rounded=0;orthogonalLoop=1;jettySize=auto;html=1;exitX=1;exitY=0.5;exitDx=0;exitDy=0;exitPerimeter=0;entryX=0;entryY=0.25;entryDx=0;entryDy=0;entryPerimeter=0;" edge="1" parent="1" source="knz-vopeXLWIy0nvYE_B-128" target="knz-vopeXLWIy0nvYE_B-180">
          <mxGeometry relative="1" as="geometry" />
        </mxCell>
        <mxCell id="knz-vopeXLWIy0nvYE_B-239" style="edgeStyle=orthogonalEdgeStyle;rounded=0;orthogonalLoop=1;jettySize=auto;html=1;exitX=1;exitY=0.5;exitDx=0;exitDy=0;exitPerimeter=0;entryX=0;entryY=0.25;entryDx=0;entryDy=0;entryPerimeter=0;" edge="1" parent="1" source="knz-vopeXLWIy0nvYE_B-180" target="knz-vopeXLWIy0nvYE_B-174">
          <mxGeometry relative="1" as="geometry" />
        </mxCell>
        <mxCell id="knz-vopeXLWIy0nvYE_B-240" style="edgeStyle=orthogonalEdgeStyle;rounded=0;orthogonalLoop=1;jettySize=auto;html=1;exitX=1;exitY=0.5;exitDx=0;exitDy=0;entryX=0;entryY=0.75;entryDx=0;entryDy=0;entryPerimeter=0;" edge="1" parent="1" source="knz-vopeXLWIy0nvYE_B-48" target="knz-vopeXLWIy0nvYE_B-174">
          <mxGeometry relative="1" as="geometry">
            <Array as="points">
              <mxPoint x="460" y="440" />
              <mxPoint x="460" y="218" />
            </Array>
          </mxGeometry>
        </mxCell>
        <mxCell id="knz-vopeXLWIy0nvYE_B-241" style="edgeStyle=orthogonalEdgeStyle;rounded=0;orthogonalLoop=1;jettySize=auto;html=1;exitX=1;exitY=0.5;exitDx=0;exitDy=0;exitPerimeter=0;entryX=0.175;entryY=0.75;entryDx=0;entryDy=0;entryPerimeter=0;" edge="1" parent="1" source="knz-vopeXLWIy0nvYE_B-174" target="5NJ1pugXPzePn0BYfRPo-8">
          <mxGeometry relative="1" as="geometry" />
        </mxCell>
      </root>
    </mxGraphModel>
  </diagram>
</mxfile>
